<svg height="40" viewBox="0 0 167 40" width="167" xmlns="http://www.w3.org/2000/svg"><path d="m88.6006779 27.5346756c-1.7793548 0-3.1698682-.5186296-4.1715403-1.5558888-1.001672-1.0372591-1.5030314-2.465453-1.5040781-4.2845816 0-1.8672758.4652489-3.3352435 1.3957468-4.4039031.9304979-1.0686595 2.2069233-1.6029893 3.8292762-1.6029893 1.5093115 0 2.7014792.4584455 3.5765031 1.3753366.8750238.916891 1.3125358 2.1781396 1.3125358 3.7837456v1.3125358h-7.6114517c.0345404 1.1105267.334414 1.9635703.8996208 2.5591308s1.3612064.8938641 2.3879988.8949108c.6330721.0041694 1.2647428-.0600504 1.8840227-.1915423.6475028-.145539 1.278697-.3559371 1.8840227-.6280076v1.9672337c-.5717077.2758492-1.1763661.477402-1.7992417.5997473-.6873968.1238538-1.3849946.182206-2.0834151.1742721zm21.1089041-11.8473628c1.653754 0 2.962103.5322364 3.925048 1.5967093.962944 1.0644728 1.443894 2.4999934 1.442847 4.3065618 0 1.8672759-.478856 3.3247768-1.436567 4.3725027-.957712 1.047726-2.291181 1.5710656-4.000409 1.570019-.99008.0183111-1.966645-.231798-2.826034-.7237788-.82473-.4876024-1.483867-1.2118324-1.891872-2.078705-.457821-.9822714-.683958-2.0565581-.660978-3.1400379 0-1.8547156.475715-3.3022731 1.427147-4.3426723.951431-1.0403992 2.291704-1.5605988 4.020818-1.5605988zm-8.102867 0c.405468-.0072984.810602.0274273 1.208914.1036213l-.237073 2.2639672c-.352358-.0835152-.713344-.125147-1.075463-.1240315-.972365 0-1.7573741.3171439-2.355028.9514315-.5976539.6342877-.8990975 1.4580242-.9043309 2.4712098v5.975492h-2.4366694v-11.4360178h1.902863l.3140037 2.0159043h.1240315c.3536277-.6548399.8632142-1.2124192 1.4836679-1.6233996.5840212-.3918008 1.2718162-.6001075 1.9750842-.5981772zm-13.4566325 1.8400622c.7776827-.0020934 1.3873733.2407362 1.829072.7284888.4416987.4877525.6693514 1.2026345.6829582 2.1446458h-5.1999026c.0900144-.9378246.3673844-1.6511366.83211-2.1399358s1.0833131-.7331988 1.8557624-.7331988zm72.9540695-1.8384922c1.509311 0 2.701479.4584456 3.576503 1.3753366.875024.9168911 1.312535 2.1781396 1.312535 3.7837456v1.3125358h-7.619301c.03454 1.1105267.334414 1.9635703.89962 2.5591309.565207.5955605 1.361207.8938641 2.387999.8949107.633072.0041694 1.264743-.0600504 1.884023-.1915423.647526-.1454567 1.278728-.3558575 1.884023-.6280075v1.9656636c-.571676.2759292-1.176344.4774855-1.799242.5997473-.686882.1237455-1.383949.1820973-2.081845.1742721-1.779355 0-3.169868-.5186296-4.17154-1.5558888-1.001672-1.0372591-1.503032-2.465453-1.504078-4.2845816 0-1.8672758.465248-3.3352435 1.395746-4.4039031.930498-1.0686595 2.209017-1.6024659 3.835557-1.6014193zm-12.037335-.00157c2.743346 0 4.115019 1.3957468 4.115019 4.1872405v7.4544498l-.00785-.00157h-2.439809v-7.0289747c0-.8823507-.177413-1.5407119-.532237-1.9750838s-.917938-.6515579-1.68934-.6515579c-1.026793 0-1.778308.303537-2.254547.910611s-.713836 1.6233996-.712789 3.0489767v5.6960287h-2.430389v-11.4344478h1.902863l.340694 1.4993681h.124031c.356986-.5523271.867069-.9887614 1.467968-1.2560152.663395-.3048866 1.386342-.4582714 2.116386-.4490254zm-25.255325.0047101c2.743347 0 4.11502 1.3957468 4.11502 4.1872404l-.00067 7.4479905-2.43757.0001793v-7.0289747c0-.8823507-.177412-1.5407119-.532236-1.9750838s-.917938-.6515579-1.68934-.6515579c-1.026793 0-1.778308.303537-2.254548.910611-.476239.607074-.713835 1.6233996-.712788 3.0489767v5.6960287h-2.430389v-11.4344478h1.901292l.340695 1.4993681h.124031c.356986-.5523271.867069-.9887614 1.467968-1.2560152.661367-.3021269 1.381489-.4538727 2.108535-.4443153zm9.92723-4.4510037v16.0864139h-2.430389v-16.0864139zm5.907981 4.6519661v11.4344478h-2.435099v-11.4344478zm-29.984221 1.7725514c1.943683 0 2.915525 1.308349 2.915525 3.9250472 0 2.6397252-.965038 3.9595878-2.895115 3.9595878-1.95101 0-2.926515-1.3198626-2.926515-3.9595878-.000524-1.2664819.229222-2.2372769.687668-2.912385.458445-.6751082 1.197924-1.0126622 2.218437-1.0126622zm29.776978-5.80436c.251842.2710923.380772.6340252.356395 1.0032421.019982.3610625-.108816.7145493-.356395.9781218-.269847.2497284-.629954.3784596-.996962.3563943-.373973.0246586-.741866-.1040189-1.018942-.3563943-.247578-.2635725-.376377-.6170593-.356394-.9781218-.024377-.3692169.104552-.7321498.356394-1.0032421.278485-.2495661.645809-.3763466 1.018942-.3516842.366181-.0222387.725783.1046129.996962.3516842zm-63.4852845 3.8261361c1.5093115 0 2.7014792.4584455 3.5765031 1.3753366.8750239.916891 1.3125358 2.1781396 1.3125358 3.7837456v1.3125358h-7.6083117c.0345404 1.1105267.3344141 1.9635703.8996209 2.5591308s1.3612064.8938641 2.3879987.8949108c.6330721.0041694 1.2647429-.0600504 1.8840227-.1915423.6475028-.145539 1.2786971-.3559371 1.8840228-.6280076v1.9672337c-.5717077.2758492-1.1763661.477402-1.7992417.5997473-.6894594.1242504-1.3891789.1826042-2.0896952.1742721-1.7793548 0-3.1698682-.5186296-4.1715403-1.5558888-1.001672-1.0372591-1.5040781-2.4659764-1.5072181-4.2861516 0-1.8672759.4652489-3.3352435 1.3957468-4.4039031.9304979-1.0686595 2.2090166-1.602466 3.8355562-1.6014193zm85.1499765 1.8400622c.771402-.0020934 1.377953.2407362 1.819651.7284888.441699.4877525.669352 1.2026345.682959 2.1446458h-5.190483c.090015-.9378246.367385-1.6511366.83211-2.1399358.464726-.4887992 1.083313-.7331988 1.855763-.7331988zm-142.3379156 16.8792734c.3234239 1.7662713.4835658 2.6486219.8054197 4.4164632-.497696.0737909-.9945089.1299191-1.4904386.1683845l-.4956353.0325779-.0031401.00157c-.2794633-1.7364409-.4207651-2.6062314-.7002284-4.3411023zm-6.1686043.1978224 1.6563699.2088125c-.0357964.6518718-.0640568 1.1733693-.0907094 1.6692943l-.0395142.7378084c-.0265271.4965531-.0544106 1.0199346-.089579 1.6749465-.3900625-.052334-.7726819-.1162977-1.1478583-.1918912l-.5571823-.1221126v-.00157c.1067613-1.5904292.1570019-2.3848588.2684733-3.9752879zm10.1831427-1.5621689c.7269187 1.7819715 1.084883 2.6784523 1.7976716 4.474554-.4980885.1860472-1.0032421.3579643-1.5200972.5124394l-.5165076.1459585-.1736622-.4593146c-.5609721-1.4751454-.8979423-2.3492956-1.5216679-3.9435785.7850094-.3030136 1.1712341-.4458853 1.9342633-.7300588zm-13.24310962.7159287 1.41301702.500836c-.3265639 1.4648277-.4898459 2.1980265-.8148398 3.6597141-.32795952-.1249037-.64777819-.2595765-.95945602-.4040182l-.45954477-.2235087.10348214-.4411413c.26300509-1.1328084.4256668-1.8344712.71734143-3.0918819zm-2.54814071-1.4192971 1.14925385.745759c-.50868613 1.2560151-.76302919 1.8840227-1.27171532 3.1290477-.26097203-.1772377-.51473361-.3607555-.76128473-.5505533l-.36441884-.2894069-.00785009-.00157c.50083603-1.2136246.75046904-1.8196519 1.25601513-3.0332765zm19.62680653-1.5150683c1.1476838 1.66108 1.7160307 2.4994701 2.8495843 4.1762503-.4662956.3140038-.9420113.6115224-1.4271472.8925558l-.4879265.2735825-.2563697-.4009994c-.9083449-1.4200548-1.444441-2.2471059-2.4475522-3.765445.7127885-.4710057 1.0660428-.7112186 1.7694113-1.1759442zm-21.63643074-.2951635c.35325426.3658144.53066639.5526466.88549067.916891-.62800757 1.0315024-.94201135 1.5464686-1.56059881 2.576401-.19817127-.2093358-.38913209-.4247191-.57288246-.64615l-.2702177-.3366818zm24.94132054-2.7035726c1.4742478 1.4381373 2.2058766 2.158776 3.6911145 3.5827831-.5442732.5934672-1.1110501 1.1534406-1.7003305 1.6799203-1.4302872-1.494658-2.1383658-2.2466971-3.571793-3.735075zm-14.0854247-19.76059767c3.292873 0 6.4505952 1.3094147 8.7771907 3.63964337 4.8457494 4.847173 4.8449801 12.7047206-.0017184 17.5509445-4.8466985 4.846224-12.7042461 4.846224-17.55094462 0-4.84669851-4.8462239-4.84746787-12.7037715-.00171847-17.5509445 2.32659558-2.33022867 5.48431769-3.63964337 8.77719079-3.63964337zm-12.32543355 20.39331527.62800757 1.0267924-1.71132062 2.0535847c-.13955724-.2309672-.27329959-.465656-.40122706-.7040662l-.18753004-.3604066-.00942011-.00314zm-.99382198-2.2262868.40035483 1.0990132-1.7756914 1.5700189c-.09001442-.2407362-.17444654-.4842636-.25283119-.7296517l-.11298322-.3693615v-.0094201zm30.07999243-2.2168667c1.7992417 1.0330724 2.7020026 1.5448986 4.562475 2.5120302-.3096862.5440116-.6370352 1.0791918-.9820468 1.6002418l-.3508992.5161437.00157.00157c-1.8133719-1.0754629-2.6957225-1.6390997-4.4651338-2.7569532.1842809-.2814259.3343404-.5096428.4760101-.7245576l.2798068-.4239173c.141964-.2149148.2927595-.4431318.4782179-.7245576zm36.929985-11.8112524-3.9391774 15.1239923h-2.6878724l-2.5638409-9.0150487c-.1099013-.3925047-.2475397-.9592815-.412915-1.7003304-.1653753-.741049-.2653332-1.2560152-.2998736-1.5448987-.0690808.440652-.1810755 1.0126622-.335984 1.7160307-.1549086.7033685-.2841735 1.2267081-.3877947 1.5700189l-2.5026102 8.9742282h-2.6878724l-1.9546735-7.5674912-1.9845039-7.547081h2.5230204l2.160346 8.8078062c.3046102 1.2347304.54722 2.4839354.7269188 3.7429251.0753609-.5861404.1889256-1.2408383.3406941-1.9640937s.2894068-1.3093958.4129149-1.7584212l2.4602197-8.8297864h2.4507995l2.5230204 8.8706069c.3233102 1.2118274.5775392 2.4410379.7614592 3.6816944.1583399-1.2720823.4070314-2.5312797.744189-3.7680454l2.1509259-8.792106zm-67.54378386 11.7311814c.08321101.4490254.12560152.6703981.20881252 1.1147134l-1.77883144 1.1806543c-.04605388-.2442252-.08629289-.4903111-.12071701-.7382578l-.04727501-.3733156-.00628008.00471zm-.14287172-2.3613085v1.1288436l-1.72702081.7520391.00157002-.5477403.01099013-.5512729.01256015.00314zm32.57161248-1.8196519c1.9954941.5385165 3.0050162.7944296 5.1135516 1.2167647-.2286135.7848306-.4963752 1.5577239-.8022796 2.3157779-2.0959753-.5306664-3.1007874-.8383901-5.0962815-1.4711077.1177515-.3090975.2134245-.5596873.3035779-.7958984l.1778537-.4663263c.0901535-.2366528.1858265-.4883464.3035779-.7992102zm-32.36594-.4788558c-.0580907.4474554-.08949108.6688281-.14758178 1.1162835l-1.63595971.4427453c.01570019-.1208914.02355028-.1868322.04082049-.3045836l.05710944-.3907385.06535204-.394271.00157001.00157zm73.9117806-1.747431c.7714027-.0020934 1.3779533.2407362 1.819652.7284888.4416986.4877525.6693514 1.2026345.6829582 2.1446458h-5.1904826c.0900145-.9378246.3673845-1.6511366.8321101-2.1399358s1.083313-.7331988 1.8557623-.7331988zm-73.39210434-.5243863c-.10990132.4270451-.166422.6421377-.28103339 1.0723229l-1.51192821.1256015.13737665-.5212463.14679677-.5118261h-.00157002zm37.84687604-1.5982793c-.0117706.5645128-.0477375 1.1281748-.1077796 1.689435l-.0680625.5604021v-.00471c-2.2168667 0-3.2781995-.0533807-5.3757448-.1789822.1051913-.8148398.1570019-1.2246148.2590531-2.0410246 2.070855.0376805 3.1164876.0439605 5.2925338-.0251203zm-38.46860353-.6986584 1.38789672.1413017-.41134495 1.0079521-1.36277642-.1836922c.12089145-.3281339.25120302-.6484178.38622465-.9655616zm1.07703298-2.1697662 1.28113544.326564c-.19939241.3799446-.29987362.5714869-.50397608.9530015l-1.26543525-.3689545c.1570019-.3140038.31400379-.6107373.48827589-.910611zm36.76042295-2.2105866c.1360441.4794197.2502722.9646753.3423555 1.4542691l.0846897.4909843-.0015701.0015701c-2.1069654.4505954-3.1306177.6452777-5.144952 1.0032421-.1193214-.7331989-.1805521-1.0990133-.3045836-1.8275021 1.9719437-.4129149 2.9720458-.6280075 5.0240605-1.1225635zm-35.37723628.080071v.00157l1.13826371.5604967c-.24963301.3579644-.37523452.5369465-.62800757.8949108l-1.11157339-.5981772.29418229-.4323439zm1.66736009-2.01747434.00785009.00314004.96713166.78500946-.7551791.83839014c-.37209449-.32656398-.56049676-.48984594-.94201136-.8179799l.35560929-.4070274zm31.89336429-2.03788456c.3286948.49910195.6249917 1.01880141.8870607 1.55588875-1.907573.74104893-2.8433043 1.09901324-4.6865065 1.76941132-.2810333-.60916734-.4239051-.91061097-.7080785-1.51820829 1.7835415-.69394836 2.6784523-1.05662273 4.5075243-1.80709178zm-29.90886038.14444174c.30458367.41134496.45530549.61701744.76145918 1.02679238l-.88078062.7724493c-.29202352-.41605501-.43803528-.62800756-.72848878-1.03935252.27475331-.25905312.55735672-.51025615.84781022-.75988916zm2.34246818-1.78511151c.1884023.52595634.2857435.78500946.4788558 1.30625574l-1.01580222.68452825c-.18526224-.50711611-.27475331-.77087929-.45059543-1.29212557l.48513584-.35207674.49769601-.34658168zm24.726228-1.43970735c.3233545.25584414.6348223.52625077.9334468.81036352l.294308.28864973.0141302.00628007c-1.5888592.94201135-2.3738686 1.41301703-3.9250473 2.31263787-.1439184-.15019848-.2639377-.2751022-.3761649-.3913999l-.3294133-.33976372c-.1127506-.11577436-.2338165-.23963141-.3793049-.38825987 1.4883779-.89805082 2.2466971-1.3612064 3.7680454-2.2985077zm-22.1639571-.10362124c.0722209.62800756.1114714.93102121.1946824 1.54332859l-1.1366937.60131725c-.0722209-.60288727-.1067613-.90590092-.1711321-1.5182083.3569176-.20933585.7232554-.41553167 1.0990133-.61858745h.0125601zm18.9830988-1.79767167c.4830393.209461.9546996.444243 1.413017.70336848-1.325096 1.02993241-1.9813639 1.53704852-3.2687794 2.52616044l-1.2560151-.78500946c1.2277548-.96085158 1.8557623-1.45069748 3.1117775-2.44451946zm-16.0581535.43332523.0078501.00628007c-.083211.7300588-.1224615 1.09116315-.1884023 1.80395174l-1.2560151.47100567c.0706508-.69551838.1099013-1.0456326.1946823-1.75528115.27423-.12420594.5496229-.24352738.8261788-.35796431zm12.44711-1.50407813c.339124.06175408.675457.13188159 1.0076032.21177811l.4949049.12734598-2.4994702 2.57326101-1.3784766-.4396053zm-9.2995201.48126643c-.250905.83126939-.3702265 1.23947431-.5978792 2.04960407l-1.3470762.33598405c.2260827-.78500946.3438341-1.18379427.5918971-1.99392403.2993503-.09559671.5996309-.18537853.900842-.26934547zm3.5359806-.65239849c-.4882759.94201135-.7237787 1.40202689-1.1822242 2.31420789-.5652069.04710056-.8478103.06908083-1.4130171.11932143.4458854-.88078061.6735381-1.32509596 1.1461138-2.2325669.3213306-.05442732.6433589-.1060635.9651546-.14746548l.4824029-.05349694zm2.1132455-.12560151c.335984 0 .6705725 0 1.0037654.01116457l.4987427.02651588h-.0047101c-.7363389 1.0126622-1.0990132 1.5103582-1.7992417 2.49005l-1.4255771-.13502162c.6735381-.94201135 1.0189422-1.42086712 1.7270208-2.39270883z" fill="#fff" fill-rule="evenodd"/></svg>